# xmcd
#
# Track frame offsets: 
#        150
#        21200
#        37996
#        55793
#        72515
#        88896
#        103954
#        115397
#        128740
#        136067
#        147632
#        161378
#
# Disc length: 2380 seconds
#
# Revision: 1
# Processed by: cddbd v1.5.2PL0 Copyright (c) Steve Scherf et al.
# Submitted via: ExactAudioCopy v1.0b1
#
DISCID=ac094a0c
DTITLE=Mayer Hawthorne - How Do You Do
DYEAR=2011
DGENRE=R&B
TTITLE0=Get To Know You
TTITLE1=A Long Time
TTITLE2=Can't Stop (with Snoop Dogg)
TTITLE3=Dreaming
TTITLE4=The Walk
TTITLE5=Finally Falling
TTITLE6=Hooked
TTITLE7=Stick Around
TTITLE8=The News
TTITLE9=You Called Me
TTITLE10=You're Not Ready
TTITLE11=No Strings
EXTD=
EXTT0=
EXTT1=
EXTT2=
EXTT3=
EXTT4=
EXTT5=
EXTT6=
EXTT7=
EXTT8=
EXTT9=
EXTT10=
EXTT11=
PLAYORDER=
